<svg width="56" height="56" viewBox="0 0 56 56" fill="none" xmlns="http://www.w3.org/2000/svg">
<g id="Icon">
<path id="Vector" d="M10.5 3.18402H45.5C47.3559 3.18593 49.1351 3.85746 50.4474 5.05129C51.7597 6.24511 52.4979 7.86374 52.5 9.55206V35.0242C52.4979 36.7125 51.7597 38.3312 50.4474 39.525C49.1351 40.7188 47.3559 41.3904 45.5 41.3923H42V52.8095L30.4749 42.3248L29.4498 41.3923H10.5C8.64413 41.3904 6.86486 40.7188 5.55256 39.525C4.24026 38.3312 3.50209 36.7125 3.5 35.0242V9.55206C3.5021 7.86374 4.24028 6.24511 5.55258 5.05129C6.86488 3.85746 8.64413 3.18593 10.5 3.18402ZM10.5 0C7.71523 0 5.04451 1.00638 3.07538 2.79773C1.10625 4.58909 0 7.0187 0 9.55206V35.0242C0 37.5576 1.10625 39.9872 3.07538 41.7785C5.04451 43.5699 7.71523 44.5763 10.5 44.5763H28L39.5251 55.0609C39.8441 55.358 40.2251 55.594 40.6458 55.7553C41.0664 55.9165 41.5183 55.9997 41.9747 55.9999C42.4372 56.0033 42.8957 55.9231 43.3239 55.7642C43.7521 55.6053 44.1414 55.3707 44.4692 55.0739C44.7971 54.7772 45.057 54.4243 45.2339 54.0356C45.4108 53.6469 45.5013 53.2302 45.5 52.8095V44.5763C48.2848 44.5763 50.9555 43.5699 52.9246 41.7785C54.8938 39.9872 56 37.5576 56 35.0242V9.55206C56 7.0187 54.8938 4.58909 52.9246 2.79773C50.9555 1.00638 48.2848 0 45.5 0H10.5Z" fill="#005699"/>
<path id="Vector_2" d="M30.1539 33.0648C30.1539 33.4523 30.0275 33.8312 29.7909 34.1534C29.5542 34.4756 29.2178 34.7268 28.8242 34.8751C28.4307 35.0234 27.9976 35.0622 27.5798 34.9866C27.162 34.911 26.7782 34.7244 26.477 34.4503C26.1758 34.1763 25.9706 33.8272 25.8875 33.4471C25.8044 33.067 25.8471 32.673 26.0101 32.315C26.1731 31.9569 26.4492 31.6509 26.8034 31.4356C27.1576 31.2203 27.574 31.1054 28 31.1054C28.5712 31.1054 29.1191 31.3118 29.523 31.6793C29.9269 32.0468 30.1538 32.5451 30.1539 33.0648ZM27.9819 9.55207C27.0254 9.50817 26.0692 9.64325 25.1724 9.94897C24.2756 10.2547 23.4573 10.7245 22.7681 11.3294C22.0788 11.9343 21.5334 12.6615 21.1654 13.4658C20.7974 14.2702 20.6147 15.1346 20.6286 16.0058V16.0117C20.6286 16.4664 20.8272 16.9025 21.1807 17.2241C21.5341 17.5456 22.0135 17.7263 22.5134 17.7263C23.0133 17.7263 23.4927 17.5456 23.8461 17.2241C24.1996 16.9025 24.3981 16.4664 24.3981 16.0117L24.3968 16.0058C24.3657 15.564 24.4373 15.1212 24.6044 14.7054C24.7716 14.2896 25.0319 13.9101 25.369 13.5907C25.706 13.2714 26.1124 13.0194 26.5622 12.8506C27.0121 12.6818 27.4957 12.6 27.9821 12.6104C28.4666 12.6016 28.9479 12.6831 29.3964 12.8498C29.8449 13.0165 30.2513 13.2649 30.5904 13.5797C30.9296 13.8945 31.1943 14.2691 31.3685 14.6804C31.5426 15.0917 31.6225 15.5311 31.6031 15.9715C31.5432 16.9149 31.1402 17.8133 30.4576 18.5255L27.4133 22.476C26.5611 23.4083 26.1142 24.5925 26.1571 25.8044V26.98C26.1571 27.4245 26.3515 27.8509 26.697 28.1653C27.0426 28.4796 27.5113 28.6563 28 28.6563C28.4887 28.6563 28.9574 28.4796 29.3029 28.1653C29.6485 27.8509 29.8426 27.4245 29.8426 26.98L29.8429 25.9715C29.9032 25.3154 30.1623 24.6874 30.5915 24.1573L33.5978 20.1055C34.6749 18.9437 35.2986 17.49 35.3713 15.9716C35.3841 15.0994 35.1991 14.2342 34.8279 13.43C34.4567 12.6258 33.9073 11.8998 33.2138 11.2974C32.5204 10.695 31.698 10.2291 30.7978 9.92884C29.8976 9.62854 28.939 9.50028 27.9819 9.55207Z" fill="#D3B34E"/>
</g>
</svg>
