<svg width="50" height="56" viewBox="0 0 50 56" fill="none" xmlns="http://www.w3.org/2000/svg">
<g id="Icon">
<path id="Vector" d="M24.6652 35.8233C28.2077 35.8233 31.6708 34.7728 34.6163 32.8046C37.5619 30.8365 39.8577 28.0391 41.2134 24.7661C42.569 21.4932 42.9238 17.8918 42.2326 14.4173C41.5415 10.9427 39.8356 7.75119 37.3306 5.2462C34.8256 2.74122 31.6341 1.0353 28.1595 0.344175C24.685 -0.346949 21.0836 0.0077612 17.8107 1.36345C14.5378 2.71914 11.7403 5.01492 9.77218 7.96047C7.80402 10.906 6.75352 14.3691 6.75352 17.9116C6.7591 22.6604 8.64801 27.213 12.0059 30.5709C15.3638 33.9288 19.9164 35.8177 24.6652 35.8233ZM24.6652 4.21451C27.3742 4.21451 30.0224 5.01783 32.2749 6.52289C34.5274 8.02796 36.283 10.1672 37.3197 12.67C38.3564 15.1728 38.6276 17.9268 38.0991 20.5838C37.5706 23.2408 36.2661 25.6814 34.3505 27.597C32.4349 29.5126 29.9943 30.8171 27.3373 31.3456C24.6804 31.8741 21.9263 31.6028 19.4235 30.5661C16.9207 29.5294 14.7815 27.7738 13.2764 25.5214C11.7714 23.2689 10.968 20.6207 10.968 17.9116C10.9736 14.2807 12.4185 10.8 14.986 8.23246C17.5535 5.66496 21.0342 4.22008 24.6652 4.21451Z" fill="#005699"/>
<path id="Vector_2" d="M48.9618 52.7024C46.2497 48.7646 42.6212 45.545 38.3887 43.3208C34.1562 41.0966 29.4465 39.9345 24.6652 39.9345C19.8838 39.9345 15.1741 41.0966 10.9416 43.3208C6.70909 45.545 3.0806 48.7646 0.368558 52.7024C0.0528339 53.1634 -0.0668132 53.7311 0.0359329 54.2803C0.138679 54.8296 0.455404 55.3156 0.916444 55.6314C1.26527 55.8658 1.67623 55.9906 2.0965 55.9897C2.43979 55.9925 2.77858 55.9115 3.08341 55.7535C3.38823 55.5956 3.64985 55.3656 3.84552 55.0835C6.16983 51.7065 9.28037 48.9451 12.9091 47.0375C16.5379 45.1298 20.5761 44.1331 24.6757 44.1331C28.7753 44.1331 32.8135 45.1298 36.4423 47.0375C40.071 48.9451 43.1816 51.7065 45.5059 55.0835C45.8217 55.5446 46.3077 55.8613 46.857 55.9641C47.4063 56.0668 47.9739 55.9472 48.435 55.6314C48.8926 55.3124 49.2051 54.8249 49.3038 54.2758C49.4026 53.7267 49.2796 53.1609 48.9618 52.7024Z" fill="#D3B34E"/>
</g>
</svg>
