<svg width="56" height="56" viewBox="0 0 56 56" fill="none" xmlns="http://www.w3.org/2000/svg">
<g id="Icon">
<path id="Vector" d="M28 51.3333C40.8866 51.3333 51.3333 40.8866 51.3333 28C51.3333 15.1134 40.8866 4.66667 28 4.66667C15.1134 4.66667 4.66667 15.1134 4.66667 28C4.66667 40.8866 15.1134 51.3333 28 51.3333ZM26.8333 28V16.3264C26.8333 15.0436 25.7887 14 24.5 14C23.2024 14 22.1667 15.0416 22.1667 16.3264V30.3403C22.1667 30.9817 22.4278 31.5633 22.8501 31.9845C23.2756 32.4078 23.8606 32.6667 24.5068 32.6667H36.1598C37.4534 32.6667 38.5 31.622 38.5 30.3333C38.5 29.0357 37.4523 28 36.1598 28H26.8333ZM28 56C12.536 56 0 43.464 0 28C0 12.536 12.536 0 28 0C43.464 0 56 12.536 56 28C56 43.464 43.464 56 28 56Z" fill="#005699"/>
<path id="Vector_2" d="M26.8333 28V16.3264C26.8333 15.0436 25.7887 14 24.5 14C23.2023 14 22.1667 15.0416 22.1667 16.3264V30.3403C22.1667 30.9817 22.4278 31.5633 22.8501 31.9845C23.2756 32.4078 23.8606 32.6667 24.5068 32.6667H36.1598C37.4534 32.6667 38.5 31.622 38.5 30.3333C38.5 29.0357 37.4523 28 36.1598 28H26.8333Z" fill="#D3B34E"/>
</g>
</svg>
